<?xml version="1.0" standalone="no"?>
<!DOCTYPE svg PUBLIC "-//W3C//DTD SVG 20010904//EN"
 "http://www.w3.org/TR/2001/REC-SVG-20010904/DTD/svg10.dtd">
<svg version="1.0" xmlns="http://www.w3.org/2000/svg"
 width="260.000000pt" height="260.000000pt" viewBox="0 0 260.000000 260.000000"
 preserveAspectRatio="xMidYMid meet">
<metadata>
Created by potrace 1.11, written by Peter Selinger 2001-2013
</metadata>
<g transform="translate(0.000000,260.000000) scale(0.100000,-0.100000)"
fill="#000000" stroke="none">
<path d="M0 2141 l0 -459 53 14 c61 16 173 18 237 4 47 -11 150 -49 150 -56 0
-3 -16 -36 -36 -75 -31 -63 -38 -70 -57 -64 -12 4 -54 14 -93 23 -60 13 -80
14 -127 3 -31 -7 -71 -22 -89 -34 l-33 -23 -3 -166 -2 -167 27 -26 c50 -46
149 -66 226 -44 l37 10 0 59 0 60 -80 0 -80 0 0 80 0 80 170 0 170 0 0 -191 0
-190 -62 -28 c-35 -16 -87 -34 -116 -40 -73 -15 -189 -14 -245 3 l-47 14 0
-464 0 -464 1300 0 1300 0 0 459 0 460 -32 -10 c-48 -13 -145 -11 -208 6 -73
19 -150 55 -150 71 0 13 40 147 45 153 2 1 28 -9 59 -24 69 -34 170 -52 209
-36 38 15 53 51 36 87 -11 22 -39 42 -117 80 -162 80 -207 137 -200 250 5 81
40 134 118 178 51 28 63 31 147 31 l93 0 0 448 0 447 -1300 0 -1300 0 0 -459z
m842 -698 c3 -229 5 -262 22 -296 27 -54 58 -71 127 -72 67 0 104 21 131 76
16 30 18 66 18 292 l0 257 96 0 95 0 -3 -287 c-3 -278 -4 -290 -27 -340 -27
-61 -84 -116 -150 -146 -38 -18 -65 -22 -161 -22 -106 0 -120 2 -172 28 -70
34 -110 78 -137 152 -20 52 -21 76 -21 335 l0 280 89 0 90 0 3 -257z m1208
172 l0 -85 -160 0 -160 0 0 -70 0 -70 145 0 145 0 0 -80 0 -80 -145 0 -145 0
0 -75 0 -75 160 0 160 0 0 -85 0 -85 -255 0 -255 0 0 395 0 395 255 0 255 0 0
-85z"/>
<path d="M2465 1539 c-27 -17 -35 -29 -35 -61 0 -31 26 -52 113 -91 l57 -26 0
84 c0 46 -4 87 -10 90 -20 13 -106 15 -125 4z"/>
</g>
</svg>
